<svg width="3181" height="882" viewBox="0 0 3181 882" fill="none" xmlns="http://www.w3.org/2000/svg">
<ellipse cx="580.951" cy="472.213" rx="72.5974" ry="36.2987" transform="rotate(-22.3867 580.951 472.213)" fill="#BBD1E5"/>
<ellipse cx="591.951" cy="449.213" rx="72.5974" ry="36.2987" transform="rotate(-22.3867 591.951 449.213)" fill="#9DB9CB"/>
<path d="M627.5 363C612 366 596.204 358.021 589.209 356.902L587 423.999L627.5 409V363Z" fill="white"/>
<path d="M624 378C614 392.4 598.833 395 592.5 394.5L590.5 424.5L624 405.5V378Z" fill="#BBD1DC"/>
<path d="M624 394.5C614 408.9 598.833 411.5 592.5 411L590.5 441L624 422V394.5Z" fill="#7DA1B5"/>
<path d="M624 394.5C614 408.9 598.833 411.5 592.5 411L590.5 441L624 422V394.5Z" fill="#7DA1B5"/>
<ellipse cx="72.5974" cy="36.2987" rx="72.5974" ry="36.2987" transform="matrix(-0.924634 -0.380856 -0.380856 0.924634 344.901 463.299)" fill="#BBD1E5"/>
<ellipse cx="72.5974" cy="36.2987" rx="72.5974" ry="36.2987" transform="matrix(-0.924634 -0.380856 -0.380856 0.924634 333.901 440.299)" fill="#9DB9CB"/>
<path d="M228.5 369.5C244 372.5 248.697 355.021 255.692 353.902L257.901 420.999L217.401 406L228.5 369.5Z" fill="white"/>
<path d="M220.901 385C230.901 399.4 246.068 402 252.401 401.5L254.401 431.5L220.901 412.5V385Z" fill="#BBD1DC"/>
<path d="M220.901 401.5C230.901 415.9 246.068 418.5 252.401 418L254.401 448L220.901 429V401.5Z" fill="#7DA1B5"/>
<path d="M220.901 401.5C230.901 415.9 246.068 418.5 252.401 418L254.401 448L220.901 429V401.5Z" fill="#7DA1B5"/>
<path d="M264.393 511.666L402.089 641.864L419.205 627.88L294.381 510.827L264.393 511.666Z" fill="#82FFBE"/>
<path d="M242 515.5L392.126 661.152L405.159 644.281L264.393 511.668L242 515.5Z" fill="#01D9AF"/>
<path d="M230.372 547.133L384.608 696.376L395.208 664.066L274 546L230.372 547.133Z" fill="#82FCB2"/>
<path d="M363 856L355 833.5C380.167 832.5 430.9 830.5 432.5 830.5C434.1 830.5 468.167 831.5 485 832V849L462.5 872.5H407.5L363 856Z" fill="#00EEF8"/>
<rect x="294" y="750" width="255" height="34" fill="#98FDB3"/>
<path d="M309 794H534L506 827L330 823L309 794Z" fill="#C6D8E6"/>
<path d="M366.5 791.5C336.1 783.5 321.833 760.167 318.5 749.5H286.5L304.5 788L366.5 791.5Z" fill="#3FCC97"/>
<path d="M429 879C398.6 871 384.333 847.667 381 837H355L381 870L429 879Z" fill="#07AEE3"/>
<path d="M389 827.5C358.6 819.5 339.333 802.667 336 792H304L338.5 827.5H389Z" fill="#A2B8CC"/>
<path d="M369 571L481 568L467 593L388.5 594L369 571Z" fill="#07B3E0"/>
<path d="M380.5 592H481L438.5 628.5L409.5 624L380.5 592Z" fill="#01EFF6"/>
<path d="M438.791 681.713C407.979 721.28 429 704.836 429 748H444.406L465.46 746.458C461.351 706.994 458.099 700.725 467.514 690.962L619 544H581.034L438.791 681.713Z" fill="url(#paint0_linear_860_919)"/>
<path d="M439.179 652.358C408.501 691.822 408.5 698.948 408.5 742H422.285H431.5C427.409 702.638 450.126 673.738 459.5 664L613.001 516H580.811L439.179 652.358Z" fill="url(#paint1_linear_860_919)"/>
<path d="M416 649.5C386.475 675.331 382.287 723.036 384.679 742H409.283C405.182 702.638 422.952 673.321 432.35 663.583L584.999 513L550.499 512L416 649.5Z" fill="url(#paint2_linear_860_919)"/>
<path d="M123 271L223.5 371.5" stroke="#013456" stroke-width="17"/>
<path d="M221 266V281L283 340" stroke="#013456" stroke-width="17"/>
<path d="M270.5 138.5L382 250" stroke="#013456" stroke-width="17"/>
<path d="M357.5 152V224" stroke="#013456" stroke-width="17"/>
<path d="M423.5 85.5V246" stroke="#013456" stroke-width="17"/>
<path d="M572.5 140L453 259.5" stroke="#013456" stroke-width="17"/>
<path d="M488.5 153V223" stroke="#013456" stroke-width="17"/>
<path d="M626.5 266.5V286L568 340" stroke="#013456" stroke-width="17"/>
<path d="M724 269L624.5 368.5" stroke="#013456" stroke-width="17"/>
<path d="M555 507.5H609.5L688 424H752" stroke="#013456" stroke-width="17"/>
<path d="M95 422.5H156.5L246 508H295" stroke="#013456" stroke-width="17"/>
<path d="M292 508L423.5 625.5" stroke="#013456" stroke-width="17"/>
<path d="M379 744C375.5 722.667 379.499 676 412.997 641.5C446.496 607 553.5 509.5 553.5 509.5" stroke="#013456" stroke-width="17"/>
<path d="M375 743C385.5 699 364 669 364 669L289 596H114" stroke="#013456" stroke-width="17"/>
<path d="M467.5 742.5C457 698.5 483.792 669 483.792 669L558.792 596H733.792" stroke="#013456" stroke-width="17"/>
<path d="M162.072 626.79L190.281 598" stroke="#013456" stroke-width="17"/>
<path d="M183 499.5H114.5V517.5H175.5L222.5 563H246.5L183 499.5Z" fill="#013456"/>
<path d="M662.5 499.5H731V517.5H670L623 563H599L662.5 499.5Z" fill="#013456"/>
<path d="M652.5 595.5L683 626" stroke="#013456" stroke-width="17"/>
<circle cx="665" cy="722" r="12" fill="#013456"/>
<circle cx="513" cy="58" r="12" fill="#013456"/>
<circle cx="613" cy="332" r="6" fill="#013456"/>
<circle cx="806" cy="326" r="12" fill="#013456"/>
<circle cx="712" cy="466" r="9" fill="#013456"/>
<circle cx="818" cy="519" r="9" fill="#013456"/>
<circle cx="563" cy="272" r="14" fill="#05D3A9"/>
<circle cx="560" cy="666" r="17" fill="#013456"/>
<path d="M505 710H570.5" stroke="#92B2CB" stroke-width="14" stroke-linecap="round"/>
<path d="M458 175L458 213" stroke="#92B2CB" stroke-width="14" stroke-linecap="round"/>
<path d="M601.879 176.15L520.122 254.354" stroke="#05D3A9" stroke-width="14" stroke-linecap="round"/>
<path d="M708 359L669 398" stroke="#05D3A9" stroke-width="14" stroke-linecap="round"/>
<path d="M721 550H665" stroke="#05D3A9" stroke-width="14" stroke-linecap="round"/>
<circle cx="12" cy="12" r="12" transform="matrix(-1 0 0 1 346 46)" fill="#013456"/>
<circle cx="6" cy="6" r="6" transform="matrix(-1 0 0 1 240 326)" fill="#013456"/>
<circle cx="12" cy="12" r="12" transform="matrix(-1 0 0 1 53 314)" fill="#013456"/>
<circle cx="9" cy="9" r="9" transform="matrix(-1 0 0 1 144 457)" fill="#013456"/>
<circle cx="9" cy="9" r="9" transform="matrix(-1 0 0 1 38 510)" fill="#013456"/>
<circle cx="14" cy="14" r="14" transform="matrix(-1 0 0 1 298 258)" fill="#05D3A9"/>
<path d="M389 175L389 213" stroke="#92B2CB" stroke-width="14" stroke-linecap="round"/>
<path d="M245.121 176.15L326.878 254.354" stroke="#05D3A9" stroke-width="14" stroke-linecap="round"/>
<path d="M139 359L178 398" stroke="#05D3A9" stroke-width="14" stroke-linecap="round"/>
<path d="M126 550H182" stroke="#05D3A9" stroke-width="14" stroke-linecap="round"/>
<circle cx="606" cy="728" r="9" fill="#013456"/>
<circle cx="606" cy="768" r="9" fill="#013456"/>
<circle cx="618" cy="666" r="13.5" stroke="#013456" stroke-width="11"/>
<circle cx="12" cy="12" r="12" transform="matrix(-1 0 0 1 194 710)" fill="#013456"/>
<circle cx="17" cy="17" r="17" transform="matrix(-1 0 0 1 304 649)" fill="#013456"/>
<path d="M342 710H276.5" stroke="#92B2CB" stroke-width="14" stroke-linecap="round"/>
<circle cx="9" cy="9" r="9" transform="matrix(-1 0 0 1 250 719)" fill="#013456"/>
<circle cx="9" cy="9" r="9" transform="matrix(-1 0 0 1 250 759)" fill="#013456"/>
<circle cx="19" cy="19" r="13.5" transform="matrix(-1 0 0 1 248 647)" stroke="#013456" stroke-width="11"/>
<circle cx="701" cy="654" r="38" fill="#013456"/>
<circle cx="701" cy="654" r="26" fill="#3FD08E"/>
<ellipse cx="701" cy="648.5" rx="24" ry="20.5" fill="#8CFFAE"/>
<circle cx="703.5" cy="640.5" r="12.5" fill="white"/>
<circle cx="146" cy="654" r="38" fill="#013456"/>
<circle cx="146" cy="654" r="26" fill="#3FD08E"/>
<ellipse cx="146" cy="648.5" rx="24" ry="20.5" fill="#8CFFAE"/>
<circle cx="148.5" cy="640.5" r="12.5" fill="white"/>
<circle cx="797.5" cy="421.5" r="48.5" fill="#013456"/>
<circle cx="797.5" cy="421.501" r="33.1842" fill="#02C29F"/>
<ellipse cx="797.5" cy="414.481" rx="30.6316" ry="26.1645" fill="#01E8B4"/>
<circle cx="800.691" cy="404.27" r="15.9539" fill="white"/>
<circle cx="48.5" cy="423.5" r="48.5" fill="#013456"/>
<circle cx="48.4996" cy="423.501" r="33.1842" fill="#02C29F"/>
<ellipse cx="48.4997" cy="416.481" rx="30.6316" ry="26.1645" fill="#01E8B4"/>
<circle cx="51.6913" cy="406.27" r="15.9539" fill="white"/>
<circle cx="606.5" cy="97.5" r="56.5" fill="#013456"/>
<circle cx="606.5" cy="97.5016" r="38.6579" fill="#02C29F"/>
<ellipse cx="606.5" cy="89.324" rx="35.6842" ry="30.4803" fill="#01E8B4"/>
<circle cx="610.217" cy="77.4293" r="18.5855" fill="white"/>
<circle cx="237.5" cy="97.5007" r="56.5" transform="rotate(30 237.5 97.5007)" fill="#013456"/>
<circle cx="237.499" cy="97.501" r="38.6579" transform="rotate(30 237.499 97.501)" fill="#02C29F"/>
<ellipse cx="241.588" cy="90.4185" rx="35.6842" ry="30.4803" transform="rotate(30 241.588 90.4185)" fill="#01E8B4"/>
<circle cx="250.755" cy="81.9762" r="18.5855" transform="rotate(30 250.755 81.9762)" fill="white"/>
<circle cx="769.5" cy="594.5" r="44.5" fill="#013456"/>
<circle cx="769.5" cy="594.5" r="30.4474" fill="#07B3E0"/>
<ellipse cx="769.5" cy="588.059" rx="28.1053" ry="24.0066" fill="#01EFF6"/>
<circle cx="772.428" cy="578.691" r="14.6382" fill="white"/>
<circle cx="75.5" cy="596.5" r="44.5" fill="#013456"/>
<circle cx="75.5001" cy="596.5" r="30.4474" fill="#07B3E0"/>
<ellipse cx="75.4998" cy="590.059" rx="28.1053" ry="24.0066" fill="#01EFF6"/>
<circle cx="78.4282" cy="580.691" r="14.6382" fill="white"/>
<circle cx="629.5" cy="235.5" r="35.5" fill="#013456"/>
<circle cx="629.5" cy="235.5" r="24.2895" fill="#07B3E0"/>
<ellipse cx="629.5" cy="230.362" rx="22.4211" ry="19.1513" fill="#01EFF6"/>
<circle cx="631.836" cy="222.889" r="11.6776" fill="white"/>
<circle cx="216.5" cy="235.5" r="35.5" fill="#013456"/>
<circle cx="216.5" cy="235.5" r="24.2895" fill="#07B3E0"/>
<ellipse cx="216.5" cy="230.362" rx="22.4211" ry="19.1513" fill="#01EFF6"/>
<circle cx="218.836" cy="222.889" r="11.6776" fill="white"/>
<circle cx="758.5" cy="509" r="29" fill="#013456"/>
<circle cx="758.5" cy="508.999" r="18.573" fill="#63E28B"/>
<circle cx="761.848" cy="500.618" r="9.53947" fill="white"/>
<circle cx="91" cy="509" r="29" fill="#013456"/>
<circle cx="90.9998" cy="508.999" r="18.573" fill="#63E28B"/>
<circle cx="94.3481" cy="500.618" r="9.53947" fill="white"/>
<circle cx="681" cy="163" r="27" fill="#013456"/>
<circle cx="681" cy="163" r="13" fill="#63E28B"/>
<circle cx="683" cy="158" r="7" fill="white"/>
<circle cx="162" cy="163" r="27" fill="#013456"/>
<circle cx="162" cy="163" r="13" fill="#63E28B"/>
<circle cx="164" cy="158" r="7" fill="white"/>
<circle cx="357" cy="124" r="31" fill="#013456"/>
<circle cx="357" cy="124" r="14.9259" fill="#84A9C1"/>
<circle cx="359.296" cy="118.26" r="8.03704" fill="white"/>
<circle cx="754.5" cy="240.5" r="46.5" fill="#013456"/>
<circle cx="754.499" cy="240.501" r="31.8158" fill="#4AD59B"/>
<ellipse cx="754.499" cy="233.771" rx="29.3684" ry="25.0855" fill="#8DFDB2"/>
<circle cx="757.56" cy="223.982" r="15.2961" fill="white"/>
<circle cx="92.5" cy="240.5" r="46.5" fill="#013456"/>
<circle cx="92.4994" cy="240.501" r="31.8158" fill="#4AD59B"/>
<ellipse cx="92.4993" cy="233.771" rx="29.3684" ry="25.0855" fill="#8DFDB2"/>
<circle cx="95.5597" cy="223.982" r="15.2961" fill="white"/>
<circle cx="423.5" cy="52" r="52" fill="#013456"/>
<circle cx="423.499" cy="52.0008" r="35.5789" fill="#4AD59B"/>
<ellipse cx="423.499" cy="44.4745" rx="32.8421" ry="28.0526" fill="#8DFDB2"/>
<circle cx="426.922" cy="33.5271" r="17.1053" fill="white"/>
<circle cx="739.5" cy="344.5" r="37.5" fill="#013456"/>
<circle cx="739.5" cy="344.5" r="25.6579" fill="#4AD59B"/>
<ellipse cx="739.5" cy="339.072" rx="23.6842" ry="20.2303" fill="#8DFDB2"/>
<circle cx="741.967" cy="331.177" r="12.3355" fill="white"/>
<circle cx="106.5" cy="343.5" r="37.5" fill="#013456"/>
<circle cx="106.5" cy="343.5" r="25.6579" fill="#4AD59B"/>
<ellipse cx="106.5" cy="338.072" rx="23.6842" ry="20.2303" fill="#8DFDB2"/>
<circle cx="108.967" cy="330.177" r="12.3355" fill="white"/>
<circle cx="491.5" cy="126.5" r="33.5" fill="#013456"/>
<circle cx="491.499" cy="126.501" r="22.9211" fill="#4AD59B"/>
<ellipse cx="491.5" cy="121.652" rx="21.1579" ry="18.0724" fill="#8DFDB2"/>
<circle cx="493.704" cy="114.6" r="11.0197" fill="white"/>
<circle cx="423.5" cy="406.5" r="161.5" fill="url(#paint3_linear_860_919)"/>
<path d="M585 406.5C585 433.498 578.232 460.064 565.315 483.771C552.398 507.477 533.744 527.568 511.059 542.205C488.374 556.842 462.381 565.558 435.458 567.557C408.535 569.556 381.54 564.774 356.942 553.648C332.344 542.521 310.928 525.406 294.651 503.867C278.375 482.328 267.758 457.052 263.771 430.351C259.784 403.65 262.554 376.375 271.829 351.021C281.103 325.666 303.725 298.327 324 280.5L345.125 317.362C330.224 330.464 319.316 341.366 312.5 360C305.684 378.634 303.177 392.405 306.108 412.029C309.038 431.653 316.841 450.23 328.803 466.06C340.766 481.89 356.505 494.468 374.584 502.646C392.662 510.823 412.502 514.337 432.289 512.868C452.076 511.399 471.179 504.993 487.851 494.236C504.524 483.478 513 476 526 459.5C537.5 442.5 552 426.342 552 406.5H585Z" fill="#C0D3E1"/>
<path d="M583.5 391C583.5 412.208 580.823 448.709 572.707 468.303C564.59 487.897 552.694 505.701 537.698 520.698C522.701 535.694 504.897 547.59 485.303 555.707C465.709 563.823 444.708 568 423.5 568C402.292 568 381.291 563.823 361.697 555.707C342.103 547.59 324.299 535.694 309.302 520.698C294.306 505.701 282.41 487.897 274.293 468.303C266.177 448.709 262 427.708 262 406.5L296 419.5C296 436.397 298.16 440.128 304.626 455.739C311.093 471.35 320.57 485.534 332.518 497.482C344.466 509.43 358.65 518.908 374.261 525.374C389.872 531.84 406.603 535.168 423.5 535.168C440.397 535.168 457.128 531.84 472.739 525.374C488.35 518.908 502.534 509.43 514.482 497.482C526.43 485.534 535.907 471.35 542.374 455.739C548.84 440.128 552.168 423.397 552.168 406.5L583.5 391Z" fill="#7EA3BB"/>
<path d="M585 406.5C585 495.694 512.694 568 423.5 568C334.306 568 262 495.694 262 406.5C262 317.306 334.306 245 423.5 245C512.694 245 585 317.306 585 406.5Z" stroke="#013456" stroke-width="20"/>
<path d="M291 750.204C291 748.987 291.987 748 293.204 748H552.89C554.055 748 555 748.945 555 750.11V750.11C555 794.784 518.784 831 474.11 831H371.796C327.174 831 291 794.826 291 750.204V750.204Z" stroke="#013456" stroke-width="15"/>
<path d="M358 831H488V831C488 854.748 468.748 874 445 874H401C377.252 874 358 854.748 358 831V831Z" stroke="#013456" stroke-width="15"/>
<path d="M265 361L265 445L257 445C233.804 445 215 426.196 215 403V403C215 379.804 233.804 361 257 361L265 361Z" stroke="#013456" stroke-width="15"/>
<path d="M582 356L582 440L590 440C613.196 440 632 421.196 632 398V398C632 374.804 613.196 356 590 356L582 356Z" stroke="#013456" stroke-width="15"/>
<path d="M301 790H543" stroke="#013456" stroke-width="17"/>
<path d="M402 477.5C410.5 486.833 425.5 494 445 477.5" stroke="#013456" stroke-width="17" stroke-linecap="round"/>
<circle cx="352.5" cy="406.5" r="36.5" fill="#013456"/>
<circle cx="352.5" cy="406.5" r="19.5" fill="#00F0FD"/>
<circle cx="352.5" cy="397.5" r="10.5" fill="white"/>
<circle cx="491.5" cy="406.5" r="36.5" fill="#013456"/>
<circle cx="491.5" cy="406.5" r="19.5" fill="#00F0FD"/>
<circle cx="491.5" cy="397.5" r="10.5" fill="white"/>
<!-- dhibot text -->
<path d="M1002 718.502V165.661H1192.05C1309.59 165.661 1368.36 187.308 1368.36 230.603V650.23C1368.36 695.745 1309.59 718.502 1192.05 718.502H1002ZM1185.18 676.873C1221.81 676.873 1240.13 667.159 1240.13 647.732V233.933C1240.13 223.942 1234.79 217.282 1224.1 213.951C1213.42 210.066 1197.39 208.123 1176.02 208.123H1127.94V676.873H1185.18Z" fill="black"/>
<path d="M1660.46 718.502V372.144C1660.46 357.712 1643.67 350.496 1610.08 350.496C1578.03 350.496 1557.42 358.267 1548.26 373.809V718.502H1426.91V159H1548.26V340.505H1557.42C1569.63 331.069 1584.13 323.853 1600.93 318.858C1617.72 313.862 1641.38 311.364 1671.91 311.364C1713.12 311.364 1742.13 316.082 1758.92 325.519C1775.71 334.4 1784.1 348.554 1784.1 367.981V718.502H1660.46Z" fill="black"/>
<path d="M1842.81 718.502V313.862H1964.17V718.502H1842.81ZM1842.81 277.228V214.784H1964.17V277.228H1842.81Z" fill="black"/>
<path d="M2023.88 718.502V165.661H2234.54C2287.96 165.661 2325.36 170.656 2346.73 180.647C2369.63 190.639 2381.08 204.793 2381.08 223.11V381.302C2381.08 406.835 2355.89 421.544 2305.52 425.43V428.76C2331.47 430.425 2352.08 434.588 2367.34 441.249C2384.13 447.355 2392.53 458.456 2392.53 474.553V670.212C2392.53 686.309 2381.84 698.52 2360.47 706.846C2339.1 714.617 2302.47 718.502 2250.56 718.502H2023.88ZM2264.3 471.222C2264.3 456.236 2245.22 448.742 2207.06 448.742H2149.82V678.538H2207.06C2245.22 678.538 2264.3 670.767 2264.3 655.225V471.222ZM2262.01 233.101C2262.01 214.784 2244.46 205.625 2209.35 205.625H2149.82V409.61H2209.35C2226.14 409.61 2239.12 407.945 2248.27 404.615C2257.43 401.284 2262.01 395.179 2262.01 386.298V233.101Z" fill="black"/>
<path d="M2790.12 657.723C2790.12 699.908 2732.11 721 2616.1 721C2500.09 721 2442.08 699.908 2442.08 657.723V375.474C2442.08 332.734 2500.09 311.364 2616.1 311.364C2732.11 311.364 2790.12 332.734 2790.12 375.474V657.723ZM2671.05 375.474C2671.05 359.377 2652.73 351.329 2616.1 351.329C2579.46 351.329 2561.15 359.377 2561.15 375.474V657.723C2561.15 673.265 2579.46 681.036 2616.1 681.036C2652.73 681.036 2671.05 673.265 2671.05 657.723V375.474Z" fill="black"/>
<path d="M3077.96 490.372H3181V657.723C3181 679.37 3169.55 695.467 3146.65 706.013C3125.28 716.004 3084.83 721 3025.3 721C2909.29 721 2851.28 699.908 2851.28 657.723V203.127H2970.34V313.862H3181V353.827H2970.34V657.723C2970.34 673.265 2989.43 681.036 3027.59 681.036C3061.17 681.036 3077.96 673.265 3077.96 657.723V490.372Z" fill="black"/> 
<defs>
<linearGradient id="paint0_linear_860_919" x1="590.089" y1="544" x2="413.809" y2="769.982" gradientUnits="userSpaceOnUse">
<stop stop-color="#85FBB1"/>
<stop offset="1" stop-color="#01E6B6"/>
</linearGradient>
<linearGradient id="paint1_linear_860_919" x1="589.825" y1="515" x2="413.926" y2="740.105" gradientUnits="userSpaceOnUse">
<stop stop-color="#00D5AD"/>
<stop offset="1" stop-color="#01B49C"/>
</linearGradient>
<linearGradient id="paint2_linear_860_919" x1="564.943" y1="517" x2="389.15" y2="742.531" gradientUnits="userSpaceOnUse">
<stop stop-color="#8CFDB2"/>
<stop offset="1" stop-color="#02C2A4"/>
</linearGradient>
<linearGradient id="paint3_linear_860_919" x1="423.5" y1="245" x2="423.5" y2="509.5" gradientUnits="userSpaceOnUse">
<stop offset="0.472014" stop-color="white"/>
<stop offset="1" stop-color="#C9E0F1"/>
</linearGradient>
</defs>
</svg>
